<svg xmlns="http://www.w3.org/2000/svg" width="1600" height="900" viewBox="0 0 1600 900"><defs><linearGradient id="bg" x1="0" y1="0" x2="1" y2="1"><stop stop-color="#071713"/><stop offset="1" stop-color="#10251f"/></linearGradient><filter id="shadow"><feDropShadow dx="0" dy="10" stdDeviation="12" flood-opacity=".22"/></filter><marker id="a" markerWidth="12" markerHeight="12" refX="10" refY="6" orient="auto"><path d="M0 0L12 6 0 12Z" fill="#65e6ad"/></marker><marker id="g" markerWidth="12" markerHeight="12" refX="10" refY="6" orient="auto"><path d="M0 0L12 6 0 12Z" fill="#ffd479"/></marker><style>.t{font:700 48px -apple-system,BlinkMacSystemFont,'PingFang SC','Microsoft YaHei',sans-serif;fill:#f4fff9}.s{font:400 24px -apple-system,BlinkMacSystemFont,'PingFang SC','Microsoft YaHei',sans-serif;fill:#9fc4b5}.h{font:700 29px -apple-system,BlinkMacSystemFont,'PingFang SC','Microsoft YaHei',sans-serif;fill:#f4fff9}.m{font:400 20px -apple-system,BlinkMacSystemFont,'PingFang SC','Microsoft YaHei',sans-serif;fill:#9fc4b5}.b{fill:#102a23;stroke:#326453;stroke-width:2;filter:url(#shadow)}.c{fill:#15372e;stroke:#326453;stroke-width:2}.num{font:700 30px -apple-system,BlinkMacSystemFont,'PingFang SC',sans-serif;fill:#65e6ad;text-anchor:middle}.center{text-anchor:middle}</style></defs><rect width="1600" height="900" fill="url(#bg)"/><circle cx="1420" cy="-20" r="310" fill="#164638" opacity=".3"/><circle cx="-60" cy="920" r="330" fill="#0d392e" opacity=".35"/><text x="72" y="95" class="t">连续追问，为什么离不开上下文？</text><text x="74" y="140" class="s">同一句问题，只有和候选人的真实资料放在一起才有意义</text><text x="1500" y="92" class="num">02</text><rect x="70" y="220" width="245" height="115" rx="22" class="c"/><text x="192.5" y="267" class="h center" fill="#65e6ad">Resume</text><text x="192.5" y="306" class="m center">做过什么</text><path d="M192.5 335 L800 425" stroke="#326453" stroke-width="3" fill="none"/><rect x="355" y="220" width="245" height="115" rx="22" class="c"/><text x="477.5" y="267" class="h center" fill="#65e6ad">JD</text><text x="477.5" y="306" class="m center">岗位关注什么</text><path d="M477.5 335 L800 425" stroke="#326453" stroke-width="3" fill="none"/><rect x="640" y="220" width="245" height="115" rx="22" class="c"/><text x="762.5" y="267" class="h center" fill="#65e6ad">Knowledge</text><text x="762.5" y="306" class="m center">项目细节与证据</text><path d="M762.5 335 L800 425" stroke="#326453" stroke-width="3" fill="none"/><rect x="925" y="220" width="245" height="115" rx="22" class="c"/><text x="1047.5" y="267" class="h center" fill="#65e6ad">History</text><text x="1047.5" y="306" class="m center">前面已经聊了什么</text><path d="M1047.5 335 L800 425" stroke="#326453" stroke-width="3" fill="none"/><rect x="1275" y="220" width="255" height="115" rx="22" class="c"/><text x="1402.5" y="267" class="h center" fill="#65e6ad">当前问题</text><text x="1402.5" y="306" class="m center">“为什么用 RAG？”</text><path d="M1402.5 335 L800 425" stroke="#326453" stroke-width="3" fill="none"/><rect x="500" y="425" width="600" height="120" rx="26" fill="#164c3b" stroke="#65e6ad" stroke-width="3"/><text x="800" y="475" class="h center">Context Assembly + Retrieval</text><text x="800" y="517" class="m center" fill="#b9f8dd">固定资料 · 向量召回 · Rerank · 上下文窗口</text><path d="M800 545V625" stroke="#65e6ad" stroke-width="5" marker-end="url(#a)"/><rect x="390" y="635" width="820" height="125" rx="26" class="b"/><text x="800" y="685" class="h center" fill="#65e6ad">回答建议</text><text x="800" y="728" class="s center" fill="#f4fff9">结论 → 原因 → 实现 → 取舍 → 自己项目中的例子</text><text x="800" y="840" class="h center" fill="#b9f8dd" font-size="24">后续追问继续复用已有事实，不必每次从空白开始</text></svg>