<svg xmlns="http://www.w3.org/2000/svg" width="1600" height="900" viewBox="0 0 1600 900"><defs><linearGradient id="bg" x1="0" y1="0" x2="1" y2="1"><stop stop-color="#120c28"/><stop offset="1" stop-color="#071b2c"/></linearGradient><filter id="sh"><feDropShadow dx="0" dy="9" stdDeviation="12" flood-opacity=".3"/></filter><marker id="a" markerWidth="12" markerHeight="12" refX="10" refY="6" orient="auto"><path d="M0 0L12 6 0 12Z" fill="#60e4ff"/></marker><style>.t{font:700 46px -apple-system,BlinkMacSystemFont,'PingFang SC','Microsoft YaHei',sans-serif;fill:#f7f5ff}.s{font:400 23px -apple-system,BlinkMacSystemFont,'PingFang SC','Microsoft YaHei',sans-serif;fill:#b6afd0}.h{font:700 25px -apple-system,BlinkMacSystemFont,'PingFang SC','Microsoft YaHei',sans-serif;fill:#f7f5ff}.m{font:400 18px -apple-system,BlinkMacSystemFont,'PingFang SC','Microsoft YaHei',sans-serif;fill:#b8b2cc}.tiny{font:400 16px -apple-system,BlinkMacSystemFont,'PingFang SC','Microsoft YaHei',sans-serif;fill:#9992b3}.box{fill:#18233d;stroke:#3d4e72;stroke-width:2;filter:url(#sh)}.cyan{fill:#12344a;stroke:#60e4ff;stroke-width:2.5}.purple{fill:#2a244d;stroke:#ad91ff;stroke-width:2.5}.red{fill:#40223d;stroke:#ff7f9e;stroke-width:2.5}.center{text-anchor:middle}.n{font:700 29px -apple-system,BlinkMacSystemFont,'PingFang SC',sans-serif;fill:#60e4ff;text-anchor:middle}</style></defs><rect width="1600" height="900" fill="url(#bg)"/><circle cx="1470" cy="-50" r="330" fill="#2b245a" opacity=".48"/><circle cx="-100" cy="930" r="350" fill="#0b3b53" opacity=".42"/><text x="72" y="92" class="t">第一版实时链路，三个“看起来没问题”的坑</text><text x="74" y="138" class="s">单次成本低、Demo 可运行、revision 递增，都不代表长期实时稳定</text><text x="1500" y="90" class="n">02</text><rect x="55" y="215" width="445" height="570" rx="28" class="red"/><text x="90" y="270" class="h" fill="#ff7f9e">AudioWorklet 高频分配</text><text x="90" y="340" class="m">观察 1</text><text x="90" y="375" class="h" font-size="22">128 samples / 2.67ms</text><text x="90" y="440" class="m">观察 2</text><text x="90" y="475" class="h" font-size="22">每声道约 375 次传输</text><path d="M90 520H465" stroke="#4c5370" stroke-width="2"/><text x="90" y="575" class="m">结果</text><text x="90" y="612" class="h" font-size="22">SIGTRAP · Renderer 黑屏</text><rect x="83" y="675" width="389" height="72" rx="18" fill="#0c172a" stroke="#ff7f9e" stroke-width="2"/><text x="277" y="720" class="h center" font-size="20">修复：1024 samples 批量转移</text><rect x="550" y="215" width="445" height="570" rx="28" class="purple"/><text x="585" y="270" class="h" fill="#ad91ff">ASR 重复建连</text><text x="585" y="340" class="m">观察 1</text><text x="585" y="375" class="h" style="font-size:19px">Mic：103 commit / 105 connect</text><text x="585" y="440" class="m">观察 2</text><text x="585" y="475" class="h" font-size="22">System 90 / 89</text><path d="M585 520H960" stroke="#4c5370" stroke-width="2"/><text x="585" y="575" class="m">结果</text><text x="585" y="612" class="h" font-size="22">握手进入每句话关键路径</text><rect x="578" y="675" width="389" height="72" rx="18" fill="#0c172a" stroke="#ad91ff" stroke-width="2"/><text x="772" y="720" class="h center" font-size="20">修复：按 session + source 复用</text><rect x="1045" y="215" width="445" height="570" rx="28" class="cyan"/><text x="1080" y="270" class="h" fill="#60e4ff">Partial 文本回缩</text><text x="1080" y="340" class="m">观察 1</text><text x="1080" y="375" class="h" font-size="22">r2：项目的性能优化</text><text x="1080" y="440" class="m">观察 2</text><text x="1080" y="475" class="h" font-size="22">r3：项目</text><path d="M1080 520H1455" stroke="#4c5370" stroke-width="2"/><text x="1080" y="575" class="m">结果</text><text x="1080" y="612" class="h" font-size="22">更高 revision 擦掉长文本</text><rect x="1073" y="675" width="389" height="72" rx="18" fill="#0c172a" stroke="#60e4ff" stroke-width="2"/><text x="1267" y="720" class="h center" font-size="20">修复：按状态单调归并</text><text x="1510" y="863" class="tiny" text-anchor="end">OfferSteady / 面试稳 · 实时 AI 踩坑复盘</text></svg>